<svg width="30" height="40" xmlns="http://www.w3.org/2000/svg">
  <path d="M29.5 8.2c.3.4.5.8.5 1.3v.5H20V0h.5c.5 0 1 .2 1.3.5l7.7 7.7ZM8.7 26.6a2.8 2.8 0 0 1 2.6 0c.4.1.7.4 1 .7.2.3.3.7.3 1 0 .6-.3 1.1-.8 1.5-.5.5-1 .7-1.8.7-.7 0-1.3-.2-1.8-.7-.5-.4-.7-.9-.7-1.4 0-.4.1-.8.4-1.1.2-.3.5-.6.8-.7Zm8.8-16c0 .5.2 1 .5 1.4.4.3.9.5 1.4.5H30v25.6c0 .5-.2 1-.5 1.4-.4.3-.9.5-1.4.5H2c-.5 0-1-.2-1.4-.5C.2 39 0 38.6 0 38V2C0 1.4.2.9.5.5 1 .2 1.4 0 2 0H10v2.5h2.5V0h5v10.6Zm-10-8.1V5H10V2.5H7.5ZM6.8 31a4 4 0 0 0 3.2 1.5c1.3 0 2.4-.5 3.2-1.5.8-1 1-2.1.9-3.4l-1.4-6.8c-.1-.5-.5-.8-1-.8H10v-2.5h2.5V15H10v-2.5h2.5V10H10V7.5h2.5V5H10v2.5H7.5V10H10v2.5H7.5V15H10v2.5H7.5V20L6 27.6c-.2 1.2 0 2.4.8 3.4Z" fill="#777" fill-rule="evenodd"/>
</svg>