<svg width="30" height="40" xmlns="http://www.w3.org/2000/svg">
  <path d="M17.5 10.6c0 .5.2 1 .5 1.4.4.3.9.5 1.4.5H30v25.6c0 .5-.2 1-.5 1.4-.4.3-.9.5-1.4.5H2c-.5 0-1-.2-1.4-.5C.2 39 0 38.6 0 38V2C0 1.4.2.9.5.5 1 .2 1.4 0 2 0h15.6v10.6Zm-5 21V20.9c0-.4-.2-.7-.6-.8-.4-.2-.7-.1-1 .2l-2.8 2.8H6c-.6 0-.9.3-.9 1v4.3c0 .7.3 1 1 1H8l2.8 2.8c.3.3.6.4 1 .2.4-.1.6-.4.6-.8Zm2.6-3.8c-.5.6-.7 1.2-.5 1.9.3.7.7 1 1.3 1.2.7.2 1.3 0 2-.4 1-1.1 1.5-2.4 1.5-4 0-1.5-.5-2.8-1.6-3.8-.6-.6-1.2-.8-1.9-.6-.6.2-1 .6-1.3 1.3-.1.6 0 1.2.5 1.8.3.4.5.8.5 1.3s-.2 1-.5 1.3Zm6.7-9.1c-.5-.5-1.1-.7-1.8-.5-.7.2-1.2.6-1.3 1.3-.2.6 0 1.2.4 1.8a7.3 7.3 0 0 1 2.1 5.3c0 2-.7 3.7-2 5.2-.6.6-.8 1.2-.5 1.9.2.6.7 1 1.3 1.2a2 2 0 0 0 1.8-.5c2.1-2.2 3.2-4.8 3.2-7.9 0-3-1-5.6-3.2-7.8ZM30 9.5v.5H20V0h.5c.5 0 1 .2 1.3.5l7.7 7.7c.3.4.5.8.5 1.3Z" fill="#777" fill-rule="evenodd"/>
</svg>