<?xml version="1.0" encoding="UTF-8"?>
<svg width="30px" height="40px" viewBox="0 0 30 40" version="1.1" xmlns="http://www.w3.org/2000/svg" xmlns:xlink="http://www.w3.org/1999/xlink">
    <title>audio</title>
    <g id="Layout" stroke="none" stroke-width="1" fill="none" fill-rule="evenodd">
        <g id="01-home-page" transform="translate(-325.000000, -389.000000)" fill="#777777">
            <g id="audio" transform="translate(325.000000, 389.000000)">
                <path d="M17.5,10.625 C17.5,11.1458368 17.6822895,11.5885421 18.0468737,11.9531263 C18.4114579,12.3177105 18.8541632,12.5 19.375,12.5 L30,12.5 L30,38.125 C30,38.6458358 29.8177105,39.08854 29.4531263,39.4531253 C29.0885421,39.8177102 28.6458368,40 28.125,40 L1.875,40 C1.35416421,40 0.91146,39.8177102 0.546874737,39.4531253 C0.182289842,39.08854 0,38.6458358 0,38.125 L0,1.875 C0,1.35416316 0.182289842,0.911457895 0.546874737,0.546873684 C0.91146,0.182289474 1.35416421,0 1.875,0 L17.5,0 L17.5,10.625 Z M12.5,31.5625 L12.5,20.9375 C12.5,20.5208316 12.3046895,20.2343737 11.9140632,20.0781263 C11.5234368,19.9218737 11.1979158,19.9999998 10.9375,20.3125 L8.125,23.125 L5.9375,23.125 C5.31249474,23.125 5,23.4374947 5,24.0625 L5,28.4375 C5,29.0625053 5.31249474,29.375 5.9375,29.375 L8.125,29.375 L10.9375,32.1875 C11.1979158,32.4999998 11.5234368,32.5781263 11.9140632,32.4218737 C12.3046895,32.2656263 12.5,31.9791684 12.5,31.5625 Z M15.0781263,27.8125 C14.5572895,28.3854211 14.4140632,29.0104158 14.6484368,29.6875 C14.8828158,30.3645842 15.3124947,30.7812474 15.9375,30.9375 C16.5625053,31.0937526 17.1874947,30.9375 17.8125,30.4687474 C18.8541737,29.3749947 19.375,28.0599053 19.375,26.5234368 C19.375,24.9869737 18.8541737,23.6979211 17.8125,22.6562526 C17.2395789,22.0833316 16.6145842,21.9010421 15.9375,22.1093737 C15.2604158,22.3177105 14.8307316,22.7343737 14.6484368,23.3593737 C14.4661474,23.9843789 14.6093737,24.6093737 15.0781263,25.2343737 C15.4427105,25.5989579 15.625,26.0286421 15.625,26.5234368 C15.625,27.0182316 15.4427105,27.4479158 15.0781263,27.8125 Z M21.7968737,18.6718737 C21.2760368,18.1510368 20.6640684,17.9947895 19.9609368,18.2031263 C19.2578105,18.4114579 18.8281263,18.8281211 18.6718737,19.4531263 C18.5156263,20.0781263 18.6718737,20.7031211 19.1406263,21.3281263 C20.5468842,22.7864632 21.25,24.5312421 21.25,26.5625 C21.25,28.5937579 20.5468842,30.3385368 19.1406263,31.7968737 C18.5677053,32.3697947 18.4114579,32.9947895 18.6718737,33.6718737 C18.9322947,34.3489632 19.3749947,34.7526037 20,34.8828126 C20.6250053,35.0130216 21.2239579,34.8437521 21.7968737,34.375 C23.9323,32.1874895 25,29.5703263 25,26.5234368 C25,23.4765474 23.9323,20.8593842 21.7968737,18.6718737 Z M30,9.53125263 L30,10 L20,10 L20,0 L20.4687474,0 C20.9895842,0 21.4322895,0.182289474 21.7968737,0.546873684 L29.4531263,8.20312632 C29.8177105,8.56771053 30,9.01041579 30,9.53125263 Z" id="Fill-1"></path>
            </g>
        </g>
    </g>
</svg>