<svg width="30" height="40" xmlns="http://www.w3.org/2000/svg">
  <path d="M30 9.5v.5H20V0h.5c.5 0 1 .2 1.3.5l7.7 7.7c.3.4.5.8.5 1.3Zm-10.6 3H30v25.6c0 .5-.2 1-.5 1.4-.4.3-.9.5-1.4.5H2c-.5 0-1-.2-1.4-.5C.2 39 0 38.6 0 38V2C0 1.4.2.9.5.5 1 .2 1.4 0 2 0h15.6v10.6c0 .5.2 1 .5 1.4.4.3.9.5 1.4.5Zm-8 2.3c-.7-.7-1.6-1-2.6-1s-1.9.3-2.6 1c-.8.8-1.1 1.7-1.1 2.7 0 1 .3 2 1 2.7.8.7 1.7 1 2.7 1 1 0 1.9-.3 2.6-1 .8-.8 1.2-1.7 1.2-2.7 0-1-.4-2-1.2-2.7Zm13.7 17.7v-8.8l-3.1-3c-.5-.5-1-.5-1.4 0l-8 8-3.1-3c-.5-.5-.9-.5-1.3 0l-3.1 3v3.8h20Z" fill="#777" fill-rule="evenodd"/>
</svg>