<?xml version="1.0" encoding="UTF-8"?>
<svg width="30px" height="40px" viewBox="0 0 30 40" version="1.1" xmlns="http://www.w3.org/2000/svg" xmlns:xlink="http://www.w3.org/1999/xlink">
    <title>picture</title>
    <g id="Layout" stroke="none" stroke-width="1" fill="none" fill-rule="evenodd">
        <g id="01-home-page" transform="translate(-365.000000, -389.000000)" fill="#777777">
            <g id="picture" transform="translate(365.000000, 389.000000)">
                <path d="M30,9.53125263 L30,10 L20,10 L20,0 L20.4687474,0 C20.9895842,0 21.4322895,0.182289474 21.7968737,0.546873684 L29.4531263,8.20312632 C29.8177105,8.56771053 30,9.01041579 30,9.53125263 Z M19.375,12.5 L30,12.5 L30,38.125 C30,38.6458358 29.8177105,39.08854 29.4531263,39.4531253 C29.0885421,39.8177102 28.6458368,40 28.125,40 L1.875,40 C1.35416421,40 0.91146,39.8177102 0.546874737,39.4531253 C0.182289842,39.08854 0,38.6458358 0,38.125 L0,1.875 C0,1.35416316 0.182289842,0.911457895 0.546874737,0.546873684 C0.91146,0.182289474 1.35416421,0 1.875,0 L17.5,0 L17.5,10.625 C17.5,11.1458368 17.6822895,11.5885421 18.0468737,11.9531263 C18.4114579,12.3177105 18.8541632,12.5 19.375,12.5 Z M11.4062526,14.8437474 C10.6770789,14.1145789 9.80469474,13.75 8.78906316,13.75 C7.77343158,13.75 6.90104737,14.1145789 6.17187368,14.8437474 C5.44270526,15.5729211 5.07812526,16.4583263 5.07812526,17.5 C5.07812526,18.5416737 5.44270526,19.4270789 6.17187368,20.1562526 C6.90104737,20.8854211 7.77343158,21.25 8.78906316,21.25 C9.80469474,21.25 10.6901,20.8854211 11.4453105,20.1562526 C12.2005263,19.4270789 12.5781253,18.5416737 12.5781253,17.5 C12.5781253,16.4583263 12.1875053,15.5729211 11.4062526,14.8437474 Z M25.0781253,32.5 L25.0781253,23.75 L21.9531263,20.625 C21.5364579,20.2083316 21.0937526,20.2083316 20.625,20.625 L12.5781253,28.75 L9.45312632,25.625 C9.03645789,25.2083316 8.61979474,25.2083316 8.20312632,25.625 L5.07812526,28.75 L5.07812526,32.5 L25.0781253,32.5 Z" id="Fill-1"></path>
            </g>
        </g>
    </g>
</svg>