<?xml version="1.0" encoding="UTF-8"?>
<svg width="30px" height="40px" viewBox="0 0 30 40" version="1.1" xmlns="http://www.w3.org/2000/svg" xmlns:xlink="http://www.w3.org/1999/xlink">
    <title>text</title>
    <g id="Layout" stroke="none" stroke-width="1" fill="none" fill-rule="evenodd">
        <g id="01-home-page" transform="translate(-405.000000, -389.000000)" fill="#777777">
            <g id="text" transform="translate(405.000000, 389.000000)">
                <path d="M17.5,10.625 C17.5,11.1458368 17.6822895,11.5885421 18.0468737,11.9531263 C18.4114579,12.3177105 18.8541632,12.5 19.375,12.5 L30,12.5 L30,38.125 C30,38.6458358 29.8177105,39.08854 29.4531263,39.4531253 C29.0885421,39.8177102 28.6458368,40 28.125,40 L1.875,40 C1.35416421,40 0.91146,39.8177102 0.546874737,39.4531253 C0.182289842,39.08854 0,38.6458358 0,38.125 L0,1.875 C0,1.35416316 0.182289842,0.911457895 0.546874737,0.546873684 C0.91146,0.182289474 1.35416421,0 1.875,0 L17.5,0 L17.5,10.625 Z M22.5,29.0625 L22.5,28.4375 C22.5,27.8124947 22.1875053,27.5 21.5625,27.5 L8.4375,27.5 C7.81249474,27.5 7.5,27.8124947 7.5,28.4375 L7.5,29.0625 C7.5,29.6875053 7.81249474,30 8.4375,30 L21.5625,30 C22.1875053,30 22.5,29.6875053 22.5,29.0625 Z M22.5,24.0625 L22.5,23.4375 C22.5,22.8124947 22.1875053,22.5 21.5625,22.5 L8.4375,22.5 C7.81249474,22.5 7.5,22.8124947 7.5,23.4375 L7.5,24.0625 C7.5,24.6875053 7.81249474,25 8.4375,25 L21.5625,25 C22.1875053,25 22.5,24.6875053 22.5,24.0625 Z M22.5,18.4375 C22.5,17.8124947 22.1875053,17.5 21.5625,17.5 L8.4375,17.5 C7.81249474,17.5 7.5,17.8124947 7.5,18.4375 L7.5,19.0625 C7.5,19.6875053 7.81249474,20 8.4375,20 L21.5625,20 C22.1875053,20 22.5,19.6875053 22.5,19.0625 L22.5,18.4375 Z M30,9.53125263 L30,10 L20,10 L20,0 L20.4687474,0 C20.9895842,0 21.4322895,0.182289474 21.7968737,0.546873684 L29.4531263,8.20312632 C29.8177105,8.56771053 30,9.01041579 30,9.53125263 Z" id="Fill-1"></path>
            </g>
        </g>
    </g>
</svg>