<svg width="30" height="40" xmlns="http://www.w3.org/2000/svg">
  <path d="M30 9.5v.5H20V0h.5c.5 0 1 .2 1.3.5l7.7 7.7c.3.4.5.8.5 1.3Zm-12.5 1.1c0 .5.2 1 .5 1.4.4.3.9.5 1.4.5H30v25.6c0 .5-.2 1-.5 1.4-.4.3-.9.5-1.4.5H2c-.5 0-1-.2-1.4-.5C.2 39 0 38.6 0 38V2C0 1.4.2.9.5.5 1 .2 1.4 0 2 0h15.6v10.6ZM25 22c0-.9-.4-1.4-1.2-1.7-.8-.4-1.4-.2-2 .3l-4.3 4.3v-3c0-.4-.2-.9-.5-1.3-.4-.3-.9-.5-1.4-.5H7c-.5 0-1 .2-1.4.5-.3.4-.5.9-.5 1.4v8.7c0 .5.2 1 .5 1.4.4.3.9.5 1.4.5h8.7c.5 0 1-.2 1.4-.5.3-.4.5-.9.5-1.4v-3l4.3 4.4c.6.5 1.2.7 2 .3.8-.3 1.2-.8 1.2-1.7V22Z" fill="#777" fill-rule="evenodd"/>
</svg>