<svg xmlns="http://www.w3.org/2000/svg" width="40" height="40" viewBox="0 0 40 40">
  <g fill="none" fill-rule="evenodd">
    <rect width="40" height="40" fill="#1DA1F2"/>
    <path fill="#FFFFFF" d="M36,11.3876763 C34.8592069,11.8934746 33.6335422,12.2355349 32.3472077,12.388998 C33.6600646,11.6024583 34.6685774,10.3561923 35.1436592,8.87094812 C33.9150108,9.59981486 32.5537506,10.1291465 31.1049665,10.4141967 C29.9446132,9.17853718 28.2919385,8.40625 26.4625586,8.40625 C22.9503347,8.40625 20.1028276,11.253106 20.1028276,14.7648583 C20.1028276,15.2627018 20.1588561,15.7482815 20.2672663,16.2136425 C14.981691,15.948811 10.2948581,13.4171674 7.15825722,9.57031548 C6.61057044,10.5093239 6.29694351,11.6014639 6.29694351,12.7665237 C6.29694351,14.9726797 7.41983402,16.9186446 9.1262165,18.0595083 C8.08355614,18.0263629 7.10289179,17.7403183 6.24588796,17.2640193 C6.24522491,17.2905356 6.24522491,17.3173834 6.24522491,17.3438997 C6.24522491,20.4247621 8.43729814,22.9948542 11.3471328,23.5788757 C10.8130387,23.7243839 10.2510962,23.8019441 9.67125104,23.8019441 C9.26181208,23.8019441 8.86265053,23.7621696 8.47476098,23.687924 C9.28369303,26.2142643 11.6329113,28.0525066 14.4157701,28.1035505 C12.2392788,29.8092114 9.49686651,30.8257799 6.51674759,30.8257799 C6.00353988,30.8257799 5.49762582,30.7956177 5,30.7369503 C7.81435416,32.5407215 11.1574979,33.59375 14.7492888,33.59375 C26.4473082,33.59375 32.8448335,23.9046947 32.8448335,15.5020113 C32.8448335,15.2262418 32.838866,14.9521296 32.8265994,14.6793432 C34.0695036,13.7830923 35.1476376,12.6631102 36,11.3876763"/>
  </g>
</svg>
