<?xml version="1.0" encoding="UTF-8" standalone="no"?><!DOCTYPE svg PUBLIC "-//W3C//DTD SVG 1.1//EN" "http://www.w3.org/Graphics/SVG/1.1/DTD/svg11.dtd"><svg width="100%" height="100%" viewBox="0 0 80 80" version="1.1" xmlns="http://www.w3.org/2000/svg" xmlns:xlink="http://www.w3.org/1999/xlink" xml:space="preserve" xmlns:serif="http://www.serif.com/" style="fill-rule:evenodd;clip-rule:evenodd;stroke-linejoin:round;stroke-miterlimit:1.41421;"><g><path d="M42.188,23.672c-0.313,-0.313 -0.665,-0.521 -1.055,-0.625c-0.391,-0.104 -0.768,-0.104 -1.133,0c-0.365,-0.104 -0.742,-0.104 -1.133,0c-0.39,0.104 -0.742,0.312 -1.054,0.625l-14.141,14.141c-0.521,0.468 -0.781,1.054 -0.781,1.757c0,0.703 0.26,1.289 0.781,1.758c0.469,0.521 1.055,0.781 1.758,0.781c0.703,0 1.289,-0.26 1.758,-0.781l10.312,-10.312l0,26.484c0,0.677 0.247,1.263 0.742,1.758c0.495,0.495 1.081,0.742 1.758,0.742c0.677,0 1.263,-0.247 1.758,-0.742c0.495,-0.495 0.742,-1.081 0.742,-1.758l0,-26.484l10.313,10.312c0.468,0.521 1.054,0.781 1.757,0.781c0.703,0 1.289,-0.26 1.758,-0.781c0.521,-0.469 0.781,-1.055 0.781,-1.758c0,-0.703 -0.26,-1.289 -0.781,-1.758l-14.14,-14.14Zm-2.188,-23.672c-5.521,0 -10.716,1.042 -15.586,3.125c-4.87,2.083 -9.114,4.935 -12.734,8.555c-3.62,3.62 -6.472,7.864 -8.555,12.734c-2.083,4.87 -3.125,10.065 -3.125,15.586c0,5.521 1.042,10.716 3.125,15.586c2.083,4.87 4.935,9.115 8.555,12.734c3.62,3.62 7.864,6.472 12.734,8.555c4.87,2.083 10.065,3.125 15.586,3.125c5.521,0 10.716,-1.042 15.586,-3.125c4.87,-2.083 9.115,-4.935 12.734,-8.555c3.62,-3.619 6.472,-7.864 8.555,-12.734c2.083,-4.87 3.125,-10.065 3.125,-15.586c0,-5.521 -1.042,-10.716 -3.125,-15.586c-2.083,-4.87 -4.935,-9.114 -8.555,-12.734c-3.619,-3.62 -7.864,-6.472 -12.734,-8.555c-4.87,-2.083 -10.065,-3.125 -15.586,-3.125Zm0,75c-4.844,0 -9.388,-0.911 -13.633,-2.734c-4.245,-1.823 -7.956,-4.323 -11.133,-7.5c-3.177,-3.177 -5.677,-6.888 -7.5,-11.133c-1.823,-4.245 -2.734,-8.789 -2.734,-13.633c0,-4.844 0.911,-9.388 2.734,-13.633c1.823,-4.245 4.323,-7.956 7.5,-11.133c3.177,-3.177 6.888,-5.677 11.133,-7.5c4.245,-1.823 8.789,-2.734 13.633,-2.734c4.844,0 9.388,0.911 13.633,2.734c4.245,1.823 7.956,4.323 11.133,7.5c3.177,3.177 5.677,6.888 7.5,11.133c1.823,4.245 2.734,8.789 2.734,13.633c0,4.844 -0.911,9.388 -2.734,13.633c-1.823,4.245 -4.323,7.956 -7.5,11.133c-3.177,3.177 -6.888,5.677 -11.133,7.5c-4.245,1.823 -8.789,2.734 -13.633,2.734Z" style="fill:#fff;"/></g></svg>