<svg xmlns="http://www.w3.org/2000/svg" width="36" height="36" viewBox="0 0 36 36">
  <path fill="#23252B" fill-rule="evenodd" d="M18,0 C27.9411255,0 36,8.0588745 36,18 C36,27.9411255 27.9411255,36 18,36 C8.0588745,36 0,27.9411255 0,18 C0,8.0588745 8.0588745,0 18,0 Z M18,3 C9.71572875,3 3,9.71572875 3,18 C3,26.2842712 9.71572875,33 18,33 C26.2842712,33 33,26.2842712 33,18 C33,9.71572875 26.2842712,3 18,3 Z M19,5 C9.82758621,10.8275862 9.82758621,25.1724138 19,31 C11.2680135,31 5,25.1797017 5,18 C5,10.8202983 11.2680135,5 19,5 Z"/>
</svg>
