<svg xmlns="http://www.w3.org/2000/svg" width="26" height="27">
  <path fill="#23252b" fill-rule="evenodd" d="M25.6 24l-5.8-5.8a10.8 10.8 0 002.3-6.9c0-1.5-.3-3-.9-4.3a10.8 10.8 0 00-5.9-5.9C14 .6 12.6.3 11.1.3A10.9 10.9 0 00.9 7a10.6 10.6 0 000 8.6 10.8 10.8 0 005.9 6 10.9 10.9 0 008 .1 13 13 0 003.1-1.7l5.9 5.9.4.3h.5a1.4 1.4 0 00.9-.3 1.3 1.3 0 000-1.8zm-23-12.7a8.9 8.9 0 012.5-6 8 8 0 012.7-1.8A8 8 0 0111 3a8 8 0 013.2.6c1 .5 2 1 2.7 1.8a8.6 8.6 0 010 12 8.5 8.5 0 01-6 2.5 8.6 8.6 0 01-7.8-5.2c-.4-1-.6-2.1-.6-3.3z"/>
</svg>