<svg xmlns="http://www.w3.org/2000/svg" width="36" height="36" viewBox="0 0 36 36">
  <path fill="#23252B" fill-rule="evenodd" d="M15,0 C23.2842712,0 30,6.71572875 30,15 C30,18.6017355 28.7305718,21.9069801 26.6147173,24.4927319 L35.0961941,32.9748737 C35.6819805,33.5606602 35.6819805,34.5104076 35.0961941,35.0961941 C34.5104076,35.6819805 33.5606602,35.6819805 32.9748737,35.0961941 L24.4927319,26.6147173 C21.9069801,28.7305718 18.6017355,30 15,30 C6.71572875,30 -8.8817842e-14,23.2842712 -8.8817842e-14,15 C-8.8817842e-14,6.71572875 6.71572875,0 15,0 Z M15,3 C8.372583,3 3,8.372583 3,15 C3,21.627417 8.372583,27 15,27 C21.627417,27 27,21.627417 27,15 C27,8.372583 21.627417,3 15,3 Z"/>
</svg>
