<svg xmlns="http://www.w3.org/2000/svg" width="40" height="40" viewBox="0 0 40 40">
  <g fill="none" fill-rule="evenodd">
    <rect width="40" height="40" fill="#00527D"/>
    <path fill="#FFFFFF" d="M34.9278825,12.0356104 C34.975958,12.083686 35,12.1317699 35,12.1798454 L35,27.9731125 C35,28.6461925 34.7836559,29.199072 34.3509594,29.6317664 C33.9182629,30.0644609 33.3653902,30.2808048 32.6923077,30.2808048 L7.30769231,30.2808048 C6.63461231,30.2808048 6.08173287,30.0644609 5.64903846,29.6317664 C5.21634397,29.199072 5,28.6461925 5,27.9731125 L5,12.1798454 C5,12.1317699 5.02403822,12.083686 5.07211538,12.0356104 C5.12019259,11.9875349 5.16826895,11.9875349 5.21634615,12.0356104 L13.0048073,19.9683069 C13.0528845,20.0163825 13.0528845,20.0884999 13.0048073,20.184651 L7.59615385,25.9538818 C7.16345902,26.3865766 7.16345902,26.8192639 7.59615385,27.2519587 C7.78846266,27.4442675 8.00480671,27.5404202 8.24519273,27.5404202 C8.4855779,27.5404202 8.70192196,27.4442675 8.89423077,27.2519587 L14.3028867,21.4827237 C14.3509622,21.3865727 14.4230797,21.3865727 14.5192308,21.4827237 L15.8173035,22.7808048 C17.0192336,23.9827341 18.4134573,24.5836899 20,24.5836899 C21.7307776,24.5836899 23.124993,24.0067718 24.1826965,22.8529206 L25.4807692,21.4827237 C25.5769203,21.3865727 25.6490378,21.3865727 25.6971133,21.4827237 L31.1057734,27.2519587 C31.2980755,27.4442675 31.5144196,27.5404202 31.7548056,27.5404202 C31.9951916,27.5404202 32.2115357,27.4442675 32.4038462,27.2519587 C32.8365427,26.8192639 32.8365427,26.3865766 32.4038462,25.9538818 L26.9951944,20.184651 C26.9471189,20.0884999 26.9471189,20.0163825 26.9951944,19.9683069 L34.7836559,12.0356104 C34.8317315,11.9875349 34.879807,11.9875349 34.9278825,12.0356104 Z M32.6923077,9.51157407 C33.1730797,9.51157407 33.6538434,9.67984261 34.1346154,10.0163797 L22.8124979,21.5548412 C22.0913399,22.3240781 21.1538545,22.708689 20,22.708689 C18.8942294,22.708689 17.9567357,22.3240781 17.1875021,21.5548412 L5.86538462,10.0163797 C6.29807944,9.67984261 6.77884392,9.51157407 7.30769231,9.51157407 L32.6923077,9.51157407 Z"/>
  </g>
</svg>
