<svg xmlns="http://www.w3.org/2000/svg" width="40" height="40" viewBox="0 0 40 40">
  <g fill="none" fill-rule="evenodd">
    <rect width="40" height="40" fill="#0A66C2"/>
    <path fill="#FFFFFF" d="M13.8819923,14.3691852 L13.8819923,30.7010222 L8.03203065,30.7010222 L8.03203065,14.3691852 L13.8819923,14.3691852 Z M27.5213716,14.0040456 C31.238092,14.0040456 33.2740766,16.5931299 33.2740766,21.0744558 L33.2740766,30.7010521 L27.4244061,30.7010521 L27.4244061,21.8047947 C27.4244061,19.9128521 26.8102912,18.8173438 25.3881303,18.8173438 C24.2571571,18.8173438 23.7400077,19.6140771 23.481433,20.2445253 C23.3521456,20.5433003 23.3198238,21.0080614 23.3198238,21.4396253 L23.3198238,30.7010521 L17.4698621,30.7010521 L17.4698621,19.9460494 C17.4698621,17.7550327 17.4052184,15.8962873 17.3408659,14.3692151 L22.3824904,14.3692151 L22.6410651,16.4606401 L22.7380307,16.4606401 C23.3198238,15.5972132 24.871272,14.0040456 27.5213716,14.0040456 Z M10.973318,7 C12.7830498,7 13.9143142,8.19480093 13.946636,9.85466204 C13.946636,11.4149315 12.7830498,12.6758278 10.973318,12.6758278 L10.9409962,12.6758278 C9.13126437,12.6758278 8,11.4149315 8,9.85466204 C8,8.19480093 9.16329502,7 10.973318,7 Z"/>
  </g>
</svg>
