<?xml version="1.0" encoding="utf-8"?>
<!-- Generator: Adobe Illustrator 19.2.1, SVG Export Plug-In . SVG Version: 6.00 Build 0)  -->
<svg version="1.1" id="Calque_1" xmlns="http://www.w3.org/2000/svg" xmlns:xlink="http://www.w3.org/1999/xlink" x="0px" y="0px"
	 width="500px" height="500px" viewBox="0 0 500 500" style="enable-background:new 0 0 500 500;" xml:space="preserve">
<style type="text/css">
	.st0{fill:#FFFFFF;}
	.st1{fill:#CCCCCC;}
	.st2{fill:none;}
	.st3{fill:#666666;}
</style>
<g>
	<path class="st0" d="M18.3,50h-16c-1.1,0-2-0.9-2-2V32c0-1.1,0.9-2,2-2h16c1.1,0,2,0.9,2,2v16C20.3,49.1,19.4,50,18.3,50z"/>
	<path class="st1" d="M18.3,31c0.6,0,1,0.4,1,1v16c0,0.6-0.4,1-1,1h-16c-0.6,0-1-0.4-1-1V32c0-0.6,0.4-1,1-1H18.3 M18.3,30h-16
		c-1.1,0-2,0.9-2,2v16c0,1.1,0.9,2,2,2h16c1.1,0,2-0.9,2-2V32C20.3,30.9,19.4,30,18.3,30L18.3,30z"/>
</g>
<g>
	<circle class="st0" cx="10.3" cy="10" r="10"/>
	<path class="st1" d="M10.3,1c5,0,9,4,9,9s-4,9-9,9s-9-4-9-9S5.3,1,10.3,1 M10.3,0c-5.5,0-10,4.5-10,10s4.5,10,10,10s10-4.5,10-10
		S15.8,0,10.3,0L10.3,0z"/>
</g>
<g>
	<path class="st0" d="M48,50H32c-1.1,0-2-0.9-2-2V32c0-1.1,0.9-2,2-2h16c1.1,0,2,0.9,2,2v16C50,49.1,49.1,50,48,50z"/>
	<path class="st1" d="M48,31c0.6,0,1,0.4,1,1v16c0,0.6-0.4,1-1,1H32c-0.6,0-1-0.4-1-1V32c0-0.6,0.4-1,1-1H48 M48,30H32
		c-1.1,0-2,0.9-2,2v16c0,1.1,0.9,2,2,2h16c1.1,0,2-0.9,2-2V32C50,30.9,49.1,30,48,30L48,30z"/>
</g>
<g>
	<path class="st2" d="M78,50H62c-1.1,0-2-0.9-2-2V32c0-1.1,0.9-2,2-2h16c1.1,0,2,0.9,2,2v16C80,49.1,79.1,50,78,50z"/>
	<path class="st2" d="M78,31c0.6,0,1,0.4,1,1v16c0,0.6-0.4,1-1,1H62c-0.6,0-1-0.4-1-1V32c0-0.6,0.4-1,1-1H78 M78,30H62
		c-1.1,0-2,0.9-2,2v16c0,1.1,0.9,2,2,2h16c1.1,0,2-0.9,2-2V32C80,30.9,79.1,30,78,30L78,30z"/>
</g>
<g>
	<path class="st2" d="M108,50H92c-1.1,0-2-0.9-2-2V32c0-1.1,0.9-2,2-2h16c1.1,0,2,0.9,2,2v16C110,49.1,109.1,50,108,50z"/>
	<path class="st2" d="M108,31c0.6,0,1,0.4,1,1v16c0,0.6-0.4,1-1,1H92c-0.6,0-1-0.4-1-1V32c0-0.6,0.4-1,1-1H108 M108,30H92
		c-1.1,0-2,0.9-2,2v16c0,1.1,0.9,2,2,2h16c1.1,0,2-0.9,2-2V32C110,30.9,109.1,30,108,30L108,30z"/>
</g>
<path class="st3" d="M75.5,38c0.4,0.3,0.4,0.8,0,1.2l-5.1,4.6c-0.4,0.3-0.9,0.3-1.3,0L64,39.2c-0.4-0.3-0.4-0.8,0-1.2H75.5z"/>
<g>
	<circle class="st0" cx="40" cy="10" r="10"/>
	<path class="st1" d="M40,1c5,0,9,4,9,9s-4,9-9,9s-9-4-9-9S35,1,40,1 M40,0c-5.5,0-10,4.5-10,10s4.5,10,10,10s10-4.5,10-10
		S45.5,0,40,0L40,0z"/>
</g>
<circle class="st3" cx="40" cy="10" r="4.3"/>
<path class="st3" d="M47.4,35.4c-0.5-0.5-1.4-0.5-2,0l-6.7,6.7l-3.8-3.8c-0.5-0.5-1.4-0.5-2,0c-0.3,0.3-0.4,0.6-0.4,1s0.1,0.7,0.4,1
	l5.7,5.7l8.7-8.7c0.3-0.3,0.4-0.6,0.4-1C47.7,35.9,47.7,35.7,47.4,35.4z"/>
<path class="st3" d="M98.8,33.7c-0.7-0.7-1.7-1.1-2.6-1.1c-1,0-2,0.3-2.7,1.1c-0.2,0.2-0.3,0.4-0.5,0.6c-0.2,0.3-0.4,0.7-0.5,1
	c-0.4,1.3-0.1,2.7,0.9,3.8l7.4,7.4l0.8-0.8l-7.4-7.4c-0.6-0.6-0.8-1.3-0.8-2.1c0-0.4,0.1-0.8,0.3-1.2c0.1-0.2,0.3-0.4,0.4-0.6
	c1.1-1.1,2.8-1.1,3.8,0l8.2,8.2c0.5,0.5,0.6,1.2,0.4,1.9c-0.1,0.2-0.2,0.4-0.4,0.6c-0.1,0.1-0.3,0.2-0.4,0.3c0,0-0.1,0-0.1,0.1
	c-0.6,0.3-1.4,0.1-1.9-0.4L96.6,38c-0.3-0.3-0.3-0.7,0-1s0.7-0.3,1,0l5.5,5.5l0.8-0.8l-5.5-5.5c-0.7-0.7-1.8-0.7-2.5,0
	c-0.2,0.2-0.3,0.4-0.4,0.6c-0.2,0.6-0.1,1.4,0.4,1.9l7.1,7.1c0.3,0.3,0.7,0.5,1.1,0.7c0.8,0.3,1.7,0.2,2.4-0.3l0,0l0,0
	c0.1-0.1,0.3-0.2,0.4-0.3l0,0c1.1-1.1,1.1-2.9,0-3.9L98.8,33.7z"/>
</svg>
