<?xml version="1.0" encoding="utf-8"?>
<!-- Generator: Adobe Illustrator 19.1.0, SVG Export Plug-In . SVG Version: 6.00 Build 0)  -->
<svg version="1.1" id="Calque_1" xmlns="http://www.w3.org/2000/svg" xmlns:xlink="http://www.w3.org/1999/xlink" x="0px" y="0px"
	 width="500px" height="500px" viewBox="0 0 500 500" style="enable-background:new 0 0 500 500;" xml:space="preserve">
<style type="text/css">
	.st0{fill:#FFFFFF;}
	.st1{fill:#CCCCCC;}
	.st2{fill:none;}
	.st3{fill:#666666;}
	.st4{fill:#E6E6E6;}
	.st5{fill:#8DEF12;}
</style>
<g>
	<path class="st0" d="M18.3,50h-16c-1.1,0-2-0.9-2-2V32c0-1.1,0.9-2,2-2h16c1.1,0,2,0.9,2,2v16C20.3,49.1,19.4,50,18.3,50z"/>
	<path class="st1" d="M18.3,31c0.6,0,1,0.4,1,1v16c0,0.6-0.4,1-1,1h-16c-0.6,0-1-0.4-1-1V32c0-0.6,0.4-1,1-1H18.3 M18.3,30h-16
		c-1.1,0-2,0.9-2,2v16c0,1.1,0.9,2,2,2h16c1.1,0,2-0.9,2-2V32C20.3,30.9,19.4,30,18.3,30L18.3,30z"/>
</g>
<g>
	<circle class="st0" cx="10.3" cy="10" r="10"/>
	<path class="st1" d="M10.3,1c5,0,9,4,9,9s-4,9-9,9s-9-4-9-9S5.3,1,10.3,1 M10.3,0c-5.5,0-10,4.5-10,10s4.5,10,10,10s10-4.5,10-10
		S15.8,0,10.3,0L10.3,0z"/>
</g>
<g>
	<path class="st0" d="M48,50H32c-1.1,0-2-0.9-2-2V32c0-1.1,0.9-2,2-2h16c1.1,0,2,0.9,2,2v16C50,49.1,49.1,50,48,50z"/>
	<path class="st1" d="M48,31c0.6,0,1,0.4,1,1v16c0,0.6-0.4,1-1,1H32c-0.6,0-1-0.4-1-1V32c0-0.6,0.4-1,1-1H48 M48,30H32
		c-1.1,0-2,0.9-2,2v16c0,1.1,0.9,2,2,2h16c1.1,0,2-0.9,2-2V32C50,30.9,49.1,30,48,30L48,30z"/>
</g>
<g>
	<path class="st2" d="M78,50H62c-1.1,0-2-0.9-2-2V32c0-1.1,0.9-2,2-2h16c1.1,0,2,0.9,2,2v16C80,49.1,79.1,50,78,50z"/>
	<path class="st2" d="M78,31c0.6,0,1,0.4,1,1v16c0,0.6-0.4,1-1,1H62c-0.6,0-1-0.4-1-1V32c0-0.6,0.4-1,1-1H78 M78,30H62
		c-1.1,0-2,0.9-2,2v16c0,1.1,0.9,2,2,2h16c1.1,0,2-0.9,2-2V32C80,30.9,79.1,30,78,30L78,30z"/>
</g>
<g>
	<path class="st2" d="M108,50H92c-1.1,0-2-0.9-2-2V32c0-1.1,0.9-2,2-2h16c1.1,0,2,0.9,2,2v16C110,49.1,109.1,50,108,50z"/>
	<path class="st2" d="M108,31c0.6,0,1,0.4,1,1v16c0,0.6-0.4,1-1,1H92c-0.6,0-1-0.4-1-1V32c0-0.6,0.4-1,1-1H108 M108,30H92
		c-1.1,0-2,0.9-2,2v16c0,1.1,0.9,2,2,2h16c1.1,0,2-0.9,2-2V32C110,30.9,109.1,30,108,30L108,30z"/>
</g>
<path class="st3" d="M75.5,38c0.4,0.3,0.4,0.8,0,1.2l-5.1,4.6c-0.4,0.3-0.9,0.3-1.3,0L64,39.2c-0.4-0.3-0.4-0.8,0-1.2H75.5z"/>
<g>
	<circle class="st0" cx="40" cy="10" r="10"/>
	<path class="st1" d="M40,1c5,0,9,4,9,9s-4,9-9,9s-9-4-9-9S35,1,40,1 M40,0c-5.5,0-10,4.5-10,10s4.5,10,10,10s10-4.5,10-10
		S45.5,0,40,0L40,0z"/>
</g>
<circle class="st3" cx="40" cy="10" r="4.3"/>
<path class="st3" d="M47.4,35.4c-0.5-0.5-1.4-0.5-2,0l-6.7,6.7l-3.8-3.8c-0.5-0.5-1.4-0.5-2,0c-0.3,0.3-0.4,0.6-0.4,1s0.1,0.7,0.4,1
	l5.7,5.7l8.7-8.7c0.3-0.3,0.4-0.6,0.4-1C47.7,35.9,47.7,35.7,47.4,35.4z"/>
<g>
	<g>
		<rect x="55.3" y="65" class="st4" width="180" height="180"/>
		<g>
			<rect x="59" y="68.7" class="st0" width="14.4" height="172.6"/>
			<rect x="76.6" y="68.7" class="st0" width="14.4" height="172.6"/>
			<rect x="94.2" y="68.7" class="st0" width="14.4" height="172.6"/>
			<rect x="111.7" y="68.7" class="st0" width="14.4" height="172.6"/>
			<rect x="129.3" y="68.7" class="st0" width="14.4" height="172.6"/>
			<rect x="146.9" y="68.7" class="st0" width="14.4" height="172.6"/>
			<rect x="164.5" y="68.7" class="st0" width="14.4" height="172.6"/>
			<rect x="182.1" y="68.7" class="st0" width="14.4" height="172.6"/>
			<rect x="199.6" y="68.7" class="st0" width="14.4" height="172.6"/>
			<rect x="217.2" y="68.7" class="st0" width="14.4" height="172.6"/>
		</g>
		<g>
			<g>
				<path class="st5" d="M170.3,94.6c6.2,1.9,7.1-9.3,1.5-7.9C169.7,87.3,167.8,93.9,170.3,94.6z M123.9,103.6
					c0.4-0.6,0.1-2.2-0.8-2C121.9,101.8,123.2,104.5,123.9,103.6z M173.8,102.7c-1.8,1.5-0.7,5.2,1.9,3.5
					C178.2,104.5,176.1,100.8,173.8,102.7z M184.7,86.7c-1.1-0.1-1.1,3.4-1.1,4C185.1,89.3,186.2,86.9,184.7,86.7z M152.5,216.7
					C152.6,216.5,152.7,216.3,152.5,216.7C152.4,217.1,152.5,216.9,152.5,216.7c-0.8,2,2.3,2.7,2.8,0.4
					C155.7,215.1,153.2,215.2,152.5,216.7z M196.7,107.7C196.7,107.7,196.6,107.6,196.7,107.7C196.6,107.6,196.7,107.7,196.7,107.7
					c0.2,0.2,0.2,0.3,0.3,0.4C196.9,108,196.8,107.8,196.7,107.7c2.1,2.5,9.5-2.2,7.1-5.5C201.1,98.3,193.9,104.3,196.7,107.7z
					 M173.5,102.9c0,0,0.1-0.1,0.3-0.2s0.2-0.2,0.3-0.2C174,102.6,173.6,102.8,173.5,102.9z M167.8,134.9c-1.3-1-3.2-1.6-5.6-1.6
					h-9.3l-4.5,22.7h9.1c2.5,0,4.8-0.6,6.6-1.6c3.9-2.2,6.4-7,6.4-12.4C170.6,139,169.7,136.3,167.8,134.9z M209.1,156.8
					C208,156.2,209.5,157,209.1,156.8L209.1,156.8z M226.4,169.1c-1.9-2.8-7.4-1.7-10.3-2.6c-2.6-0.9-2.8-2-3.9-4.2
					c-1.1-2-3.3-1.7-4.5-3.3c-1.2-1.7,0.1-4.5-0.7-6.5c-1-2.5-1-3.4-0.3-6.1c0.3-1.2-0.3-2.8,0.1-3.9c0.4-1.3,3.1-1.6,4.2-2
					c1.7-0.6,4.2-2,2.3-3.9c-2.1-2.2-5.3-0.2-7.7-0.1c-1.8,0.1-1.8-0.7-2.7-2c-0.6-0.8-1.5-0.8-2-1.4c-0.4-0.5,0.1-1.8,0.2-2.3l0,0
					c1.5-2.7,4.2-0.9,5.9-2.7c2.4-2.6-0.5-5.5-3.3-4.8c-2.2,0.5-4.6,4.5-7,3.4c-1-0.4-1.1-1.6-1.5-2.4s-2.5-1.4-4.2-1.7
					c-1.7-0.2-1.1-1-1.7-2.3c-0.5-1.2-1.3-1.4-0.6-2.9c0.4-0.8,2.7-5.9,1.9-6.7c-1.4-1.4-3,3.6-5.2,2.6c-3.7-1.8,3.9-18.8,7.9-23.3
					c2.2-2.4,5.5-5.9,5-9.5c-0.3-1.7-1.9-4-3.9-3.3c-2.6,0.9-3.9,6.9-4.7,9.2c-2.4,7.5-9.4,18.3-12.4,21.2c-2.6,2.5-4.1,0.7-6.9-0.5
					c-1.1-0.5-2.6-0.6-3.3-1.6c-0.8-1.3,0.5-2.8-0.4-3.8c-0.5-0.6-1.7-0.2-2.2-0.8c-0.7-0.9,0.2-1.1,0.5-1.9c0.8-2-1.4-4.8-3.7-4.5
					c-2,0.3-1.8,2.6-1.9,4.2c0,0.6,0.1,1.9-0.4,2.3c-0.9,0.9-1.7-0.2-1.9-1.1c-0.4-1.6,0.1-5.1-2.9-3.4c-2.1,1.2-1.7,4.3-2.8,6.1
					c-1.6,2.5-7.4,3.1-7.2-0.8c0.1-1.7,1.2-3.9,0.1-5.4c-0.7-1-2.2-1.4-3.2-0.6c-3.1,2.5,3.9,8.7-1.4,9.7c-2.2,0.4-6.3-0.3-6.6-2.9
					c-0.3-2.1,0.5-4.3-0.4-6.4c-1.1-2.7-4-2.8-5,0.1c-0.4,1.1-0.2,2,0.1,3.1c0.3,0.8,0.2,1.5,0.3,2.2c0.4,1.8,1.9,3.2,0.6,5.2
					c-1.4,2.2-1.8,0-3.4-0.3c-1.3-0.3-2.2,1-3.3,0.9s-1.7-1.2-2.4-1.9c-2-2.2-5.6-1.8-5.3,1.8c0.2,2,4.6,4.3,2.2,6.2
					c-3.3,2.6-7.1-3.6-8.9-5.9c-1.4-1.7-2.9-3.6-5-4.4c-2.2-0.8-6.1-0.7-6.4,2.3c-0.4,4.2,7.1,8.7,9.8,11.1c0.4,0.4,3.7,3.6,2.1,4.2
					c-0.9,0.3-2.4-2.4-3.3-0.5c-0.4,0.8,1.9,1.5,2.4,1.9c-0.6,0.3-1.1,1.1-1.7,1.3c-0.4,0.1-1.5-0.2-1.7,0c-0.5,0.4-0.6,2.1,0.3,2.4
					c-0.5,0.9-0.8,1-1.6,1c-0.4,0-1.2-0.7-1.5-0.9c-0.2-0.1-1.4-0.9-1.7-1.1c-0.4-0.2-1.1-0.5-1.3-0.6c-0.6-0.2-1.2-0.4-1.8-0.3
					c0.2,0,0.4,0,0.5,0c-3.7-0.3-4.7,5.7-1.9,7.4c1,0.6,3.6,1.2,3.1,3c-0.5,1.6-2.4,0.5-3.5,0.5c-2.5-0.1-6,2.3-5,5.2
					c0.4,1.1,1.8,1.5,2.1,2.6c0.3,1.2-1.2,1.8-1.1,2.7c0,0,0.3-0.2,0.6-0.6c-0.8,1.2-1.9,2.2-3.4,2.3c-1.7,0.1-4.6-1.5-5.6,0.7
					c-2,4.2,6.8,2.2,7.5,5.2c1.1,2.3-14.2,2.1-15.5,2.1c-2.1,0-13.4-0.6-11.3,3.5c1.3,2.5,4.9,1.6,7.1,1.2
					c2.8-0.5,14.6-1.9,17.7-1.7c2.9,0.2,0.8,0.5,1.3,2.2c0.3,0.9,1.6,1,1.9,1.9c0.3,1-0.6,1.7-1.1,2.4c-0.7,0.9-1.1,1.3-1.1,2.4
					c0.1,1.7,0.9,1.8,0.1,3.4c-0.4,0.8-1.1,2.3-1.8,2.7c-2.3,1.3-7.6,0.4-6.6,5c1.1,5.1,8,0.1,9.2,4.2c0.6,2.1,0.7,5.9,3,7
					c2.3,1,4.5-2.6,6.8-1.7c1.3,0.5,2.6,2.7,3.3,3.8c1,1.6,3.4,3.1,3.5,4.9c0.4,4.6-6.2,6.9-7.2,10.9v-0.1c-1.2,3.6-6,6.1-9,8.5
					c-1.9,1.5-5.5,3.8-4.3,6.7c1.7,4,5.5,0.1,7.1-1.7c3.5-4.1,6.8-8.5,10.6-12.2c1.3-1.2,5.9-5.1,7.1-5.4c1.4-0.3,2.3,0.8,3.6,1.1
					c1.8,0.4,3.2-0.1,4.6,1.1c0.5,0.4,0.7,0.9,1.3,1.3c0.4,0.3,1,0.3,1.4,0.7c0.5,0.4,0.4,1.1,0.8,1.5c0.4,0.5,1,0.5,1.4,0.9
					s1.8,0.9,1.6,2.4c-0.2,1.1-1.4,2.6-2,3.5c-0.8,1.4-1.6,2.8-2.4,4.2c-0.7,1.2-4.5,7.8-0.7,7.1c2.8-0.5,4.2-6.2,5.1-8.4
					c0.8-1.9,1.8-6.1,4.1-6.8c3.1-0.8,3,2.5,5.8,2.2c1.6-0.1,1.4-0.6,2.1,0.7c0.2,0.4,1.1,1.5,1.2,1.7c1.5,2.5-1.4,6.4-0.6,9.2
					c0.9,3.4,4.4,2.7,4.7-0.6c0.1-2.1-0.9-4.7,1.1-6.3c1.9-1.5,3.1,0.9,5-0.2c1.5-0.8,2-2.6,3.7-3.5c1.2-0.6,2.8-1.2,3.9-0.1
					c2.3,2.3,0.8,8.9,1,11.9c0.2,3.1,1.5,7.8,5.6,7.4c3.2-0.3,2.3-4.5,2-6.7c-0.4-2.6-4.6-17.5,2.1-14.8c3.3,1.3,2.8,6,4.7,8.5
					c1.8,2.3,6.8,3.7,8.1,0.1s-3.1-5.9-2.3-9.1c0.7-2.9,3.8-3.6,5.7-1.4c1.7,1.9,2.8,5.6,5.6,6.1c1.2,0.2,1.9-0.1,2-1.5
					c0-2.4-2.9-4.4-3.9-6.3c-1.1-2.1,0.2-4.9,2.3-5.9c3.7-1.8,4.2,2.1,6.2,3.9c1.6,1.4,4.8,1.2,4.8-1.3c0-2.8-5.6-5.4-4.9-7.8
					c0.3-0.8,1.7-1.1,2.2-2c0.8-1.4-0.1-2.4-0.4-3.9c-0.7-3.1,1-3.1,1.1-3.2s0.8-1.1,0.6-1.1c1.3-0.7,2.4,0.5,3.3,1.1
					c1.8,1.1,3.5,1.2,5.5,0.4l0,0c3.5-2.1,4.8-6.1,1.1-8.6c-0.6-0.4-2.4-1.1-2.5-1.8c-0.2-0.9,0.9-1,1.2-1.8
					c0.9-1.9-1.9-3.5-0.7-5.4c2.6-4.1,9.2-0.7,12.2,0.9c1.9,1,4.3,2.6,6.5,1.7C227.3,172.8,227.4,170.6,226.4,169.1z M117.2,113.1
					L117.2,113.1L117.2,113.1L117.2,113.1z M171.7,169.5c-4.1,1.6-8.9,2.1-13.8,2.1h-12.4l-2.2,11.3h9l-2.8,14.5h-37.9l2.8-14.5h8.9
					l9.9-50.7h-8.9l2.8-14.5h37.3c5.1,0,9,0.4,12.8,1.8c7.7,3,13.4,10.9,13.4,21.5C190.7,153.6,183,165.1,171.7,169.5z M211.1,154.4
					c-0.9-0.3-3.3,1.8-2.1,2.4C210.4,157.5,213.3,155,211.1,154.4z M98.5,123.9C98.5,123.9,98.6,123.9,98.5,123.9L98.5,123.9z
					 M99.8,124.5c0.1,0,0.1,0.1,0.1,0.1C99.7,124.5,99.7,124.4,99.8,124.5z"/>
			</g>
		</g>
	</g>
	<g>
		<polygon class="st5" points="278.7,135.7 265,135.7 273,147.8 245.1,147.8 242.8,159.5 270.8,159.5 258.5,172.5 273.2,172.5 
			290.3,154 		"/>
		<polygon class="st5" points="11.9,135.7 25.6,135.7 17.6,147.8 45.5,147.8 47.8,159.5 19.8,159.5 32.1,172.5 17.4,172.5 0.3,154 
					"/>
	</g>
</g>
<g>
	<g>
		<path class="st5" d="M108.3,284.6c-1.8,1.4-0.7,5,1.8,3.3C112.6,286.4,110.6,282.8,108.3,284.6z M105,276.9c6,1.8,7-8.9,1.4-7.5
			C104.4,269.9,102.5,276.1,105,276.9z M108.3,284.6C109.3,283.9,107.4,285.4,108.3,284.6L108.3,284.6z M130.7,289.4
			C130.6,289.2,130.5,289.1,130.7,289.4c0.2,0.2,0.3,0.3,0.3,0.4C131,289.7,130.8,289.5,130.7,289.4c2,2.4,9.2-2.1,7-5.2
			C135,280.4,128,286.1,130.7,289.4z M59.7,285.4c0.4-0.5,0.1-2.1-0.8-1.9C57.7,283.7,59,286.3,59.7,285.4z M119,269.3
			c-1.1-0.1-1.1,3.2-1.1,3.8C119.4,271.8,120.5,269.5,119,269.3z M159.7,348.1c-1.9-2.7-7.3-1.6-10.1-2.5c-2.6-0.8-2.7-1.9-3.8-4
			c-1-1.9-3.3-1.6-4.4-3.2c-1.2-1.7,0.1-4.3-0.7-6.3c-1-2.4-1-3.2-0.3-5.8c0.3-1.2-0.3-2.7,0.1-3.7c0.4-1.2,3-1.5,4.1-1.9
			c1.6-0.5,4.1-1.9,2.3-3.8c-2-2.1-5.2-0.2-7.5-0.1c-1.7,0.1-1.7-0.7-2.6-1.9c-0.6-0.8-1.5-0.8-1.9-1.4c-0.4-0.5,0.1-1.8,0.2-2.2
			c1.5-2.5,4.1-0.9,5.8-2.6c2.3-2.5-0.5-5.3-3.2-4.6c-2.1,0.5-4.5,4.3-6.9,3.3c-0.9-0.4-1-1.5-1.5-2.3c-0.4-0.8-2.4-1.4-4.1-1.6
			s-1.1-1-1.6-2.2c-0.5-1.1-1.2-1.3-0.6-2.7c0.3-0.8,2.7-5.6,1.9-6.4c-1.4-1.4-3,3.5-5.1,2.5c-3.6-1.7,3.8-18,7.7-22.3
			c2.2-2.3,5.4-5.6,4.9-9.1c-0.3-1.7-1.8-3.8-3.8-3.2c-2.5,0.8-3.9,6.6-4.6,8.8c-2.3,7.2-9.2,17.6-12.1,20.3c-2.6,2.4-4,0.7-6.7-0.5
			c-1-0.4-2.5-0.6-3.2-1.6c-0.8-1.2,0.5-2.6-0.4-3.7c-0.5-0.6-1.7-0.2-2.1-0.7c-0.7-0.8,0.2-1,0.5-1.9c0.8-2-1.4-4.6-3.6-4.3
			c-2,0.3-1.7,2.5-1.8,4c0,0.6,0.1,1.8-0.4,2.2c-0.9,0.9-1.6-0.1-1.9-1c-0.4-1.5,0.1-4.9-2.9-3.3c-2.1,1.1-1.6,4.1-2.7,5.8
			c-1.5,2.4-7.2,2.9-7-0.8c0.1-1.6,1.2-3.7,0.1-5.2c-0.7-0.9-2.1-1.4-3.1-0.6c-3,2.4,3.8,8.3-1.3,9.3c-2.2,0.4-6.1-0.3-6.4-2.8
			c-0.3-2,0.5-4.2-0.3-6.2c-1.1-2.6-3.9-2.6-4.8,0.1c-0.4,1.1-0.2,1.9,0.1,2.9c0.3,0.8,0.2,1.4,0.3,2.1c0.4,1.7,1.9,3,0.6,5
			c-1.4,2.1-1.8,0-3.3-0.3c-1.3-0.2-2.1,0.9-3.2,0.8c-1.1-0.1-1.6-1.1-2.3-1.9c-1.9-2.1-5.5-1.7-5.2,1.7c0.2,1.9,4.5,4.1,2.1,5.9
			c-3.2,2.5-6.9-3.5-8.7-5.6c-1.4-1.7-2.8-3.4-4.9-4.2c-2.1-0.8-6-0.7-6.3,2.2c-0.4,4.1,6.9,8.3,9.6,10.6c0.4,0.4,3.6,3.4,2,4
			c-0.8,0.3-2.4-2.3-3.3-0.5c-0.4,0.8,1.9,1.4,2.3,1.8c-0.6,0.3-1.1,1.1-1.7,1.2c-0.4,0.1-1.5-0.2-1.7,0c-0.4,0.4-0.6,2,0.3,2.3
			c-0.5,0.9-0.8,1-1.6,0.9c-0.4,0-1.1-0.7-1.5-0.9c-0.2-0.1-1.4-0.9-1.6-1.1c-0.4-0.2-1.1-0.5-1.2-0.6c-0.5-0.2-1.2-0.4-1.8-0.3
			c0.2,0,0.3,0,0.5,0c-3.6-0.2-4.6,5.4-1.8,7.1c1,0.6,3.5,1.1,3,2.9c-0.5,1.5-2.3,0.5-3.4,0.5c-2.5-0.1-5.9,2.2-4.9,5
			c0.4,1,1.8,1.5,2,2.5c0.3,1.1-1.1,1.8-1.1,2.6c0,0,0.3-0.2,0.6-0.6c-0.8,1.2-1.9,2.1-3.3,2.2c-1.6,0.1-4.5-1.4-5.4,0.6
			c-1.9,4,6.6,2.2,7.3,5c1,2.2-13.8,2-15.1,2c-2.1,0-13.1-0.6-11,3.4c1.3,2.4,4.8,1.5,6.9,1.1c2.7-0.5,14.3-1.9,17.3-1.7
			c2.9,0.2,0.7,0.5,1.3,2.1c0.3,0.8,1.6,1,1.8,1.8c0.3,1-0.6,1.6-1.1,2.3c-0.7,0.9-1.1,1.3-1,2.3c0.1,1.6,0.8,1.7,0,3.3
			c-0.4,0.8-1.1,2.2-1.8,2.6c-2.3,1.3-7.4,0.4-6.4,4.8c1.1,4.9,7.8,0.1,8.9,4.1c0.6,2,0.6,5.7,3,6.7c2.3,1,4.4-2.5,6.6-1.6
			c1.2,0.5,2.5,2.6,3.2,3.6c1,1.5,3.3,2.9,3.4,4.7c0.4,4.4-6.1,6.6-7,10.4v-0.1c-1.2,3.5-5.9,5.9-8.8,8.1c-1.9,1.4-5.4,3.6-4.2,6.4
			c1.6,3.8,5.4,0.1,6.9-1.7c3.4-3.9,6.6-8.1,10.4-11.7c1.2-1.2,5.7-4.9,6.9-5.2c1.4-0.3,2.2,0.8,3.5,1c1.8,0.4,3.1-0.1,4.5,1.1
			c0.5,0.4,0.7,0.9,1.2,1.3c0.4,0.3,1,0.3,1.4,0.7c0.4,0.4,0.4,1,0.8,1.5s1,0.5,1.3,0.9c0.4,0.4,1.7,0.9,1.5,2.3
			c-0.2,1.1-1.4,2.5-2,3.4c-0.8,1.3-1.6,2.7-2.3,4c-0.6,1.1-4.4,7.5-0.7,6.8c2.8-0.5,4-5.9,5-8.1c0.8-1.8,1.8-5.9,4-6.5
			c3-0.8,3,2.4,5.7,2.1c1.6-0.1,1.4-0.6,2.1,0.7c0.2,0.3,1.1,1.4,1.2,1.6c1.5,2.4-1.3,6.1-0.6,8.8c0.8,3.2,4.3,2.6,4.5-0.6
			c0.1-2.1-0.9-4.5,1.1-6c1.8-1.5,3.1,0.9,4.9-0.2c1.5-0.8,2-2.5,3.6-3.3c1.2-0.6,2.7-1.1,3.8-0.1c2.2,2.2,0.8,8.5,1,11.4
			c0.2,3,1.5,7.4,5.4,7.1c3.1-0.2,2.2-4.3,1.9-6.4c-0.4-2.5-4.5-16.7,2-14.2c3.3,1.3,2.7,5.8,4.6,8.1c1.8,2.2,6.6,3.6,7.9,0.1
			s-3.1-5.6-2.3-8.7c0.7-2.8,3.7-3.4,5.5-1.4c1.6,1.8,2.7,5.4,5.5,5.8c1.1,0.2,1.9-0.1,1.9-1.4c0-2.3-2.8-4.2-3.8-6
			c-1.1-2,0.2-4.7,2.3-5.7c3.6-1.7,4.1,2,6.1,3.7c1.6,1.3,4.6,1.1,4.6-1.3c0-2.7-5.5-5.2-4.8-7.5c0.3-0.8,1.7-1.1,2.2-1.9
			c0.8-1.3-0.1-2.3-0.4-3.7c-0.7-3,1-3,1.1-3.1c0.1-0.1,0.8-1.1,0.6-1c1.2-0.7,2.3,0.4,3.3,1c1.8,1.1,3.4,1.1,5.4,0.3l0,0
			c3.4-2,4.7-5.8,1.1-8.3c-0.6-0.4-2.3-1-2.5-1.8c-0.2-0.9,0.8-1,1.2-1.7c0.9-1.8-1.9-3.3-0.7-5.2c2.5-4,9-0.7,11.9,0.8
			c1.9,1,4.2,2.5,6.4,1.6C160.5,351.7,160.7,349.6,159.7,348.1z M53.2,294.6L53.2,294.6L53.2,294.6L53.2,294.6z M142.8,336.4
			C141.8,335.9,143.2,336.6,142.8,336.4L142.8,336.4z M144.8,334.1c-0.9-0.3-3.2,1.7-2,2.3C144.1,337.1,147,334.7,144.8,334.1z
			 M36.2,305.5c0.1,0,0.1,0.1,0.1,0.1C36.1,305.4,36.1,305.4,36.2,305.5z M34.9,304.9C35,304.9,35,304.9,34.9,304.9L34.9,304.9z
			 M87.6,393.7C87.7,393.5,87.8,393.3,87.6,393.7C87.5,394.1,87.5,393.9,87.6,393.7c-0.8,1.9,2.3,2.6,2.7,0.4
			C90.7,392.2,88.2,392.3,87.6,393.7z"/>
	</g>
</g>
<g>
	<g>
		<path d="M343.3,284.6c-1.8,1.4-0.7,5,1.8,3.3C347.6,286.4,345.6,282.8,343.3,284.6z M340,276.9c6,1.8,7-8.9,1.4-7.5
			C339.4,269.9,337.5,276.1,340,276.9z M343.3,284.6C344.3,283.9,342.4,285.4,343.3,284.6L343.3,284.6z M365.7,289.4
			C365.6,289.2,365.5,289.1,365.7,289.4c0.2,0.2,0.3,0.3,0.3,0.4C366,289.7,365.8,289.5,365.7,289.4c2,2.4,9.2-2.1,7-5.2
			C370,280.4,363,286.1,365.7,289.4z M294.7,285.4c0.4-0.5,0.1-2.1-0.8-1.9C292.7,283.7,294,286.3,294.7,285.4z M354,269.3
			c-1.1-0.1-1.1,3.2-1.1,3.8C354.4,271.8,355.5,269.5,354,269.3z M394.7,348.1c-1.9-2.7-7.3-1.6-10.1-2.5c-2.6-0.8-2.7-1.9-3.8-4
			c-1-1.9-3.3-1.6-4.4-3.2c-1.2-1.7,0.1-4.3-0.7-6.3c-1-2.4-1-3.2-0.3-5.8c0.3-1.2-0.3-2.7,0.1-3.7c0.4-1.2,3-1.5,4.1-1.9
			c1.6-0.5,4.1-1.9,2.3-3.8c-2-2.1-5.2-0.2-7.5-0.1c-1.7,0.1-1.7-0.7-2.6-1.9c-0.6-0.8-1.5-0.8-1.9-1.4c-0.4-0.5,0.1-1.8,0.2-2.2
			c1.5-2.5,4.1-0.9,5.8-2.6c2.3-2.5-0.5-5.3-3.2-4.6c-2.1,0.5-4.5,4.3-6.9,3.3c-0.9-0.4-1-1.5-1.5-2.3c-0.4-0.8-2.4-1.4-4.1-1.6
			s-1.1-1-1.6-2.2c-0.5-1.1-1.2-1.3-0.6-2.7c0.3-0.8,2.7-5.6,1.9-6.4c-1.4-1.4-3,3.5-5.1,2.5c-3.6-1.7,3.8-18,7.7-22.3
			c2.2-2.3,5.4-5.6,4.9-9.1c-0.3-1.7-1.8-3.8-3.8-3.2c-2.5,0.8-3.9,6.6-4.6,8.8c-2.3,7.2-9.2,17.6-12.1,20.3c-2.6,2.4-4,0.7-6.7-0.5
			c-1-0.4-2.5-0.6-3.2-1.6c-0.8-1.2,0.5-2.6-0.4-3.7c-0.5-0.6-1.7-0.2-2.1-0.7c-0.7-0.8,0.2-1,0.5-1.9c0.8-2-1.4-4.6-3.6-4.3
			c-2,0.3-1.7,2.5-1.8,4c0,0.6,0.1,1.8-0.4,2.2c-0.9,0.9-1.6-0.1-1.9-1c-0.4-1.5,0.1-4.9-2.9-3.3c-2.1,1.1-1.6,4.1-2.7,5.8
			c-1.5,2.4-7.2,2.9-7-0.8c0.1-1.6,1.2-3.7,0.1-5.2c-0.7-0.9-2.1-1.4-3.1-0.6c-3,2.4,3.8,8.3-1.3,9.3c-2.2,0.4-6.1-0.3-6.4-2.8
			c-0.3-2,0.5-4.2-0.3-6.2c-1.1-2.6-3.9-2.6-4.8,0.1c-0.4,1.1-0.2,1.9,0.1,2.9c0.3,0.8,0.2,1.4,0.3,2.1c0.4,1.7,1.9,3,0.6,5
			c-1.4,2.1-1.8,0-3.3-0.3c-1.3-0.2-2.1,0.9-3.2,0.8c-1.1-0.1-1.6-1.1-2.3-1.9c-1.9-2.1-5.5-1.7-5.2,1.7c0.2,1.9,4.5,4.1,2.1,5.9
			c-3.2,2.5-6.9-3.5-8.7-5.6c-1.4-1.7-2.8-3.4-4.9-4.2c-2.1-0.8-6-0.7-6.3,2.2c-0.4,4.1,6.9,8.3,9.6,10.6c0.4,0.4,3.6,3.4,2,4
			c-0.8,0.3-2.4-2.3-3.3-0.5c-0.4,0.8,1.9,1.4,2.3,1.8c-0.6,0.3-1.1,1.1-1.7,1.2c-0.4,0.1-1.5-0.2-1.7,0c-0.4,0.4-0.6,2,0.3,2.3
			c-0.5,0.9-0.8,1-1.6,0.9c-0.4,0-1.1-0.7-1.5-0.9c-0.2-0.1-1.4-0.9-1.6-1.1c-0.4-0.2-1.1-0.5-1.2-0.6c-0.5-0.2-1.2-0.4-1.8-0.3
			c0.2,0,0.3,0,0.5,0c-3.6-0.2-4.6,5.4-1.8,7.1c1,0.6,3.5,1.1,3,2.9c-0.5,1.5-2.3,0.5-3.4,0.5c-2.5-0.1-5.9,2.2-4.9,5
			c0.4,1,1.8,1.5,2,2.5c0.3,1.1-1.1,1.8-1.1,2.6c0,0,0.3-0.2,0.6-0.6c-0.8,1.2-1.9,2.1-3.3,2.2c-1.6,0.1-4.5-1.4-5.4,0.6
			c-1.9,4,6.6,2.2,7.3,5c1,2.2-13.8,2-15.1,2c-2.1,0-13.1-0.6-11,3.4c1.3,2.4,4.8,1.5,6.9,1.1c2.7-0.5,14.3-1.9,17.3-1.7
			c2.9,0.2,0.7,0.5,1.3,2.1c0.3,0.8,1.6,1,1.8,1.8c0.3,1-0.6,1.6-1.1,2.3c-0.7,0.9-1.1,1.3-1,2.3c0.1,1.6,0.8,1.7,0,3.3
			c-0.4,0.8-1.1,2.2-1.8,2.6c-2.3,1.3-7.4,0.4-6.4,4.8c1.1,4.9,7.8,0.1,8.9,4.1c0.6,2,0.6,5.7,3,6.7c2.3,1,4.4-2.5,6.6-1.6
			c1.2,0.5,2.5,2.6,3.2,3.6c1,1.5,3.3,2.9,3.4,4.7c0.4,4.4-6.1,6.6-7,10.4v-0.1c-1.2,3.5-5.9,5.9-8.8,8.1c-1.9,1.4-5.4,3.6-4.2,6.4
			c1.6,3.8,5.4,0.1,6.9-1.7c3.4-3.9,6.6-8.1,10.4-11.7c1.2-1.2,5.7-4.9,6.9-5.2c1.4-0.3,2.2,0.8,3.5,1c1.8,0.4,3.1-0.1,4.5,1.1
			c0.5,0.4,0.7,0.9,1.2,1.3c0.4,0.3,1,0.3,1.4,0.7s0.4,1,0.8,1.5c0.4,0.5,1,0.5,1.3,0.9c0.4,0.4,1.7,0.9,1.5,2.3
			c-0.2,1.1-1.4,2.5-2,3.4c-0.8,1.3-1.6,2.7-2.3,4c-0.6,1.1-4.4,7.5-0.7,6.8c2.8-0.5,4-5.9,5-8.1c0.8-1.8,1.8-5.9,4-6.5
			c3-0.8,3,2.4,5.7,2.1c1.6-0.1,1.4-0.6,2.1,0.7c0.2,0.3,1.1,1.4,1.2,1.6c1.5,2.4-1.3,6.1-0.6,8.8c0.8,3.2,4.3,2.6,4.5-0.6
			c0.1-2.1-0.9-4.5,1.1-6c1.8-1.5,3.1,0.9,4.9-0.2c1.5-0.8,2-2.5,3.6-3.3c1.2-0.6,2.7-1.1,3.8-0.1c2.2,2.2,0.8,8.5,1,11.4
			c0.2,3,1.5,7.4,5.4,7.1c3.1-0.2,2.2-4.3,1.9-6.4c-0.4-2.5-4.5-16.7,2-14.2c3.3,1.3,2.7,5.8,4.6,8.1c1.8,2.2,6.6,3.6,7.9,0.1
			s-3.1-5.6-2.3-8.7c0.7-2.8,3.7-3.4,5.5-1.4c1.6,1.8,2.7,5.4,5.5,5.8c1.1,0.2,1.9-0.1,1.9-1.4c0-2.3-2.8-4.2-3.8-6
			c-1.1-2,0.2-4.7,2.3-5.7c3.6-1.7,4.1,2,6.1,3.7c1.6,1.3,4.6,1.1,4.6-1.3c0-2.7-5.5-5.2-4.8-7.5c0.3-0.8,1.7-1.1,2.2-1.9
			c0.8-1.3-0.1-2.3-0.4-3.7c-0.7-3,1-3,1.1-3.1s0.8-1.1,0.6-1c1.2-0.7,2.3,0.4,3.3,1c1.8,1.1,3.4,1.1,5.4,0.3l0,0
			c3.4-2,4.7-5.8,1.1-8.3c-0.6-0.4-2.3-1-2.5-1.8c-0.2-0.9,0.8-1,1.2-1.7c0.9-1.8-1.9-3.3-0.7-5.2c2.5-4,9-0.7,11.9,0.8
			c1.9,1,4.2,2.5,6.4,1.6C395.5,351.7,395.7,349.6,394.7,348.1z M288.2,294.6L288.2,294.6L288.2,294.6L288.2,294.6z M377.8,336.4
			C376.8,335.9,378.2,336.6,377.8,336.4L377.8,336.4z M379.8,334.1c-0.9-0.3-3.2,1.7-2,2.3C379.1,337.1,382,334.7,379.8,334.1z
			 M271.2,305.5c0.1,0,0.1,0.1,0.1,0.1C271.1,305.4,271.1,305.4,271.2,305.5z M269.9,304.9C270,304.9,270,304.9,269.9,304.9
			L269.9,304.9z M322.6,393.7C322.7,393.5,322.8,393.3,322.6,393.7C322.5,394.1,322.5,393.9,322.6,393.7c-0.8,1.9,2.3,2.6,2.7,0.4
			C325.7,392.2,323.2,392.3,322.6,393.7z"/>
	</g>
</g>
<g>
	<polygon class="st0" points="91.3,330.5 78.9,330.5 78.9,357.7 68.1,349.1 68.1,364 84.7,377.1 101.3,364 101.3,349.1 91.3,356.9 	
		"/>
	<path class="st0" d="M105.9,320.2c0-0.6,0.2-1.4,0.2-2c0-8.7-7.2-15.9-16.2-15.9c-6.2,0-11.6,3.6-14.2,8.5
		c-0.8-0.2-1.8-0.4-2.8-0.4c-5,0-9.2,4.2-9.2,9.1v0.2c-5.4,1-9.4,5.5-9.4,11.1c0,6.3,5.2,11.3,11.4,11.3h10v-15.3h19v15.3h7.4
		c6.4,0,11.4-5.2,11.4-11.3C113.3,325.9,110.3,321.8,105.9,320.2z"/>
</g>
<g>
	<g>
		<path d="M192.7,267.1c1.8,0.5,2.1-2.7,0.4-2.3C192.5,265,192,266.8,192.7,267.1z M173.4,299.7
			C173.4,299.7,173.4,299.6,173.4,299.7C173.4,299.6,173.4,299.6,173.4,299.7C173.4,299.7,173.5,299.7,173.4,299.7L173.4,299.7
			c0.6,0.7,2.8-0.6,2.1-1.6C174.7,297,172.6,298.7,173.4,299.7z M199.4,268.8L199.4,268.8L199.4,268.8
			C199.5,268.8,199.5,268.9,199.4,268.8C199.5,268.9,199.4,268.8,199.4,268.8c0.6,0.7,2.8-0.6,2.1-1.6
			C200.7,266.1,198.6,267.8,199.4,268.8z M170.2,273.4L170.2,273.4c0.1,0,0.1,0,0.2,0C170.3,273.4,170.2,273.4,170.2,273.4z
			 M208.1,286.4c-0.6-0.8-2.2-0.5-3-0.8s-0.8-0.6-1.1-1.2s-1-0.5-1.3-0.9c-0.4-0.5,0-1.3-0.2-1.9c-0.3-0.7-0.3-1-0.1-1.7
			c0.1-0.4-0.1-0.8,0-1.1c0.1-0.4,0.9-0.5,1.2-0.6c0.5-0.2,1.2-0.6,0.7-1.1c-0.6-0.6-1.5-0.1-2.2,0c-0.5,0-0.5-0.2-0.8-0.6
			c-0.2-0.2-0.4-0.2-0.6-0.4c-0.1-0.2,0-0.5,0.1-0.7c0.4-0.8,1.2-0.3,1.7-0.8c0.7-0.7-0.1-1.6-1-1.4c-0.6,0.2-1.4,1.3-2.1,1
			c-0.3-0.1-0.3-0.5-0.4-0.7c-0.1-0.2-0.7-0.4-1.2-0.5s-0.3-0.3-0.5-0.7c-0.2-0.3-0.4-0.4-0.2-0.8c0.1-0.2,0.8-1.7,0.6-1.9
			c-0.4-0.4-0.9,1-1.5,0.7c-1.1-0.5,1.1-5.4,2.3-6.7c0.7-0.7,1.6-1.7,1.5-2.7c-0.1-0.5-0.5-1.1-1.1-0.9c-0.8,0.2-1.2,2-1.4,2.6
			c-0.7,2.2-2.8,5.3-3.6,6.1c-0.8,0.7-1.2,0.2-2-0.1c-0.3-0.1-0.8-0.2-1-0.5c-0.2-0.4,0.1-0.8-0.1-1.1c-0.1-0.2-0.5-0.1-0.6-0.2
			c-0.2-0.2,0.1-0.3,0.2-0.6c0.2-0.6-0.4-1.4-1.1-1.3c-0.6,0.1-0.5,0.7-0.5,1.2c0,0.2,0,0.5-0.1,0.7c-0.3,0.3-0.5,0-0.6-0.3
			c-0.1-0.5,0-1.5-0.9-1c-0.6,0.3-0.5,1.2-0.8,1.7c-0.5,0.7-2.2,0.9-2.1-0.2c0-0.5,0.4-1.1,0-1.6c-0.2-0.3-0.6-0.4-0.9-0.2
			c-0.9,0.7,1.1,2.5-0.4,2.8c-0.6,0.1-1.8-0.1-1.9-0.8c-0.1-0.6,0.2-1.2-0.1-1.8c-0.3-0.8-1.2-0.8-1.5,0c-0.1,0.3-0.1,0.6,0,0.9
			c0.1,0.2,0.1,0.4,0.1,0.6c0.1,0.5,0.6,0.9,0.2,1.5s-0.5,0-1-0.1c-0.4-0.1-0.6,0.3-1,0.2c-0.3,0-0.5-0.3-0.7-0.6
			c-0.6-0.6-1.6-0.5-1.5,0.5c0.1,0.6,1.3,1.2,0.6,1.8c-1,0.8-2.1-1-2.6-1.7c-0.4-0.5-0.8-1-1.5-1.2c-0.6-0.2-1.8-0.2-1.9,0.7
			c-0.1,1.2,2.1,2.5,2.9,3.2c0.1,0.1,1.1,1,0.6,1.2c-0.3,0.1-0.4,0.3-0.3,0.4c-0.2,0.1-1.2,1-0.9,1c-0.1,0.3-0.2,0.3-0.5,0.3
			c-0.1,0-0.3-0.2-0.4-0.3c-0.1,0-0.4-0.3-0.5-0.3c-0.1-0.1-0.3-0.1-0.4-0.2c-0.1-0.1-0.3-0.1-0.5-0.1c-1,0-1.3,1.6-0.5,2.1
			c0.3,0.2,1.1,0.3,0.9,0.9c-0.1,0.5-0.7,0.2-1,0.1c-0.7,0-1.8,0.7-1.5,1.5c0.1,0.3,0.5,0.4,0.6,0.7c0.1,0.3-0.3,0.5-0.3,0.8
			c0,0,0.1-0.1,0.2-0.2c-0.2,0.4-0.6,0.6-1,0.7c-0.5,0-1.3-0.4-1.6,0.2c-0.6,1.2,2,0.6,2.2,1.5c0.3,0.7-4.1,0.6-4.5,0.6
			c-0.6,0-3.9-0.2-3.3,1c0.4,0.7,1.4,0.5,2.1,0.3c0.8-0.2,4.3-0.6,5.2-0.5s0.2,0.1,0.4,0.6c0.1,0.2,0.5,0.3,0.5,0.5
			c0.1,0.3-0.2,0.5-0.3,0.7c-0.2,0.3-0.3,0.4-0.3,0.7c0,0.5,0.3,0.5,0,1c-0.1,0.2-0.3,0.7-0.5,0.8c-0.7,0.4-2.2,0.1-1.9,1.4
			c0.3,1.5,2.3,0,2.7,1.2c0.2,0.6,0.2,1.7,0.9,2s1.3-0.7,2-0.5c0.4,0.1,0.8,0.8,1,1.1c0.3,0.5,1,0.9,1,1.4c0.1,1.3-1.8,2-2.1,3.1
			l0,0c-0.4,1-1.8,1.8-2.6,2.4c-0.6,0.4-1.6,1.1-1.3,1.9c0.5,1.1,1.6,0,2.1-0.5c1-1.2,2-2.4,3.1-3.5c0.4-0.3,1.7-1.5,2.1-1.5
			c0.4-0.1,0.7,0.2,1.1,0.3c0.5,0.1,0.9,0,1.3,0.3c0.1,0.1,0.2,0.3,0.4,0.4c0.1,0.1,0.3,0.1,0.4,0.2c0.1,0.1,0.1,0.3,0.2,0.4
			c0.1,0.1,0.3,0.2,0.4,0.3c0.1,0.1,0.5,0.3,0.5,0.7c0,0.3-0.4,0.7-0.6,1c-0.2,0.4-0.5,0.8-0.7,1.2c-0.2,0.3-1.3,2.3-0.2,2.1
			c0.8-0.2,1.2-1.8,1.5-2.4c0.2-0.6,0.5-1.8,1.2-1.9c0.9-0.2,0.9,0.7,1.7,0.6c0.5,0,0.4-0.2,0.6,0.2c0.1,0.1,0.3,0.4,0.4,0.5
			c0.4,0.7-0.4,1.8-0.2,2.6c0.3,1,1.3,0.8,1.4-0.2c0-0.6-0.3-1.3,0.3-1.8c0.6-0.4,0.9,0.3,1.5,0c0.4-0.2,0.6-0.8,1.1-1
			c0.4-0.2,0.8-0.3,1.1,0c0.7,0.6,0.2,2.6,0.3,3.4c0.1,0.9,0.4,2.2,1.6,2.1c0.9-0.1,0.7-1.3,0.6-1.9c-0.1-0.7-1.4-5,0.6-4.3
			c1,0.4,0.8,1.7,1.4,2.4c0.5,0.7,2,1.1,2.4,0c0.4-1-0.9-1.7-0.7-2.6c0.2-0.8,1.1-1,1.7-0.4c0.5,0.5,0.8,1.6,1.6,1.8
			c0.3,0.1,0.6,0,0.6-0.4c0-0.7-0.9-1.3-1.1-1.8c-0.3-0.6,0.1-1.4,0.7-1.7c1.1-0.5,1.2,0.6,1.8,1.1c0.5,0.4,1.4,0.3,1.4-0.4
			c0-0.8-1.7-1.6-1.4-2.2c0.1-0.2,0.5-0.3,0.6-0.6c0.2-0.4,0-0.7-0.1-1.1c-0.2-0.9,0.3-0.9,0.3-0.9l0.2-0.3c0.4-0.2,0.7,0.1,1,0.3
			c0.5,0.3,1,0.3,1.6,0.1l0,0c1-0.6,1.4-1.7,0.3-2.5c-0.2-0.1-0.7-0.3-0.7-0.5c-0.1-0.3,0.3-0.3,0.4-0.5c0.3-0.6-0.6-1-0.2-1.5
			c0.7-1.2,2.7-0.2,3.6,0.2c0.6,0.3,1.3,0.7,1.9,0.5C208.4,287.5,208.4,286.9,208.1,286.4z M176.2,270.4L176.2,270.4L176.2,270.4
			L176.2,270.4z M171.1,273.6L171.1,273.6C171,273.6,171,273.6,171.1,273.6z M170.7,273.5L170.7,273.5
			C170.7,273.4,170.7,273.4,170.7,273.5z"/>
	</g>
</g>
<g>
	<polygon class="st0" points="182.8,294.1 188.8,294.1 188.8,281.1 194,285.2 194,278 186,271.7 178,278 178,285.2 182.8,281.5 	"/>
</g>
<path class="st3" d="M98.8,33.7c-0.7-0.7-1.7-1.1-2.6-1.1c-1,0-2,0.3-2.7,1.1c-0.2,0.2-0.3,0.4-0.5,0.6c-0.2,0.3-0.4,0.7-0.5,1
	c-0.4,1.3-0.1,2.7,0.9,3.8l7.4,7.4l0.8-0.8l-7.4-7.4c-0.6-0.6-0.8-1.3-0.8-2.1c0-0.4,0.1-0.8,0.3-1.2c0.1-0.2,0.3-0.4,0.4-0.6
	c1.1-1.1,2.8-1.1,3.8,0l8.2,8.2c0.5,0.5,0.6,1.2,0.4,1.9c-0.1,0.2-0.2,0.4-0.4,0.6c-0.1,0.1-0.3,0.2-0.4,0.3c0,0-0.1,0-0.1,0.1
	c-0.6,0.3-1.4,0.1-1.9-0.4L96.6,38c-0.3-0.3-0.3-0.7,0-1c0.3-0.3,0.7-0.3,1,0l5.5,5.5l0.8-0.8l-5.5-5.5c-0.7-0.7-1.8-0.7-2.5,0
	c-0.2,0.2-0.3,0.4-0.4,0.6c-0.2,0.6-0.1,1.4,0.4,1.9l7.1,7.1c0.3,0.3,0.7,0.5,1.1,0.7c0.8,0.3,1.7,0.2,2.4-0.3l0,0l0,0
	c0.1-0.1,0.3-0.2,0.4-0.3l0,0c1.1-1.1,1.1-2.9,0-3.9L98.8,33.7z"/>
<path class="st0" d="M296.6,299.9c-1.5,4.3-2,8.9-0.7,13c-1.6,1.8-2.8,3.8-3.7,6.1c-2.4,7.4-1.8,16.9,3.4,22.7
	c1.8,2,4.3,3.6,7.4,4.9c3.1,1.3,7.1,2.1,11.9,2.4c-3.3,1.5-5.6,2.5-6.4,5.8c-3.6,2.4-8.1,1.8-11.3-0.8c-2.5-1.9-3.7-5.1-6.5-6.4
	c-0.2-0.2-0.7-0.3-1.7-0.4c-0.9-0.1-1.7,0.2-2.2,0.8c-0.3,0.3-0.2,0.5,0.1,0.9c2.1,1.7,4.2,3.6,5.4,5.8c1.1,2.4,2.7,3.8,4,4.9
	c3.4,2.3,7.9,3.1,11.9,1.7c-0.5,2.8,0.5,7.9-0.4,10.5c-0.4,0.7-0.9,1.3-1.5,1.9c-0.6,0.6-2.4,1.3-2,2.2c0.2,0.4,0.8,0.6,1.8,0.7
	c2.3-0.1,5-1,6.3-2.8c0.5-0.7,1.1-1.5,1.1-2.6v-10.8c0-1.2,0.5-2.1,1-2.6s1-0.9,1.9-1.1V371c0,1.2-1.5,4.7-1.7,5
	c-0.4,0.7-1.3,1.3-1.3,2.1c0,0.3,0.1,0.4,0.4,0.5c2.3-0.1,4.2-1.5,5.2-3.4c1.2-1.8,1.5-2.9,1.8-5v-13.3h2.9v13.3
	c0,1.8-0.3,3.4,0.5,5s3.2,2.6,5.1,3c1,0.3,1.5,0.4,1.8,0.3c0.4,0,0.4-0.2,0.4-0.5c-0.2-0.8-1.3-1.5-1.8-2.1c-0.6-0.8-1.6-2.5-1.6-5
	v-14.3c1,0.2,1.3,0.5,1.9,1.1c0.6,0.5,1,1.4,1,2.6v10.8c0,1.1,0.8,1.9,1.2,2.6c1.5,1.9,4,2.8,6.3,2.8c1.1-0.1,1.8-0.3,2-0.7
	s0.1-0.7-0.3-1s-1-0.7-1.6-1.2c-0.7-0.5-1.1-1.1-1.5-1.9c-0.4-4.5,0-9.4-0.3-14c-0.6-5-2.6-6.7-6.4-8.6c4.6-0.3,8.4-1.2,11.3-2.5
	c8.8-4.3,11.3-10.9,11.3-19.8c-0.1-5.7-1.8-10.7-5.6-14.6c0.5-2,0.7-4.1,0.5-6.3c-0.2-2.2-0.7-4.2-1.4-6c-3.3,0.2-6,0.8-8.2,2
	c-2.2,1.1-3.8,2.1-4.8,2.9c-7.8-1.8-16.2-1.8-23.7,0.3C305.9,301.9,301.1,300.2,296.6,299.9z"/>
</svg>
